<svg width="58" height="58" viewBox="0 0 58 58" fill="none" xmlns="http://www.w3.org/2000/svg">
<rect x="32.2085" y="11.02" width="6.67266" height="7.27927" fill="white"/>
<rect x="18.5601" y="20.6191" width="20.3213" height="7.27927" fill="white"/>
<rect x="27.8398" y="42.9199" width="11.02" height="4.06" fill="white"/>
<path fill-rule="evenodd" clip-rule="evenodd" d="M38.1079 36.4911C38.6185 37.7238 38.8813 39.0451 38.8813 40.3794L32.2967 40.3794C32.2967 39.9098 32.2043 39.4448 32.0245 39.0109C31.8448 38.577 31.5814 38.1828 31.2493 37.8507C30.9173 37.5187 30.5231 37.2553 30.0892 37.0756C29.6553 36.8958 29.1903 36.8033 28.7207 36.8033C28.2511 36.8033 27.7861 36.8958 27.3522 37.0756C26.9183 37.2553 26.5241 37.5187 26.1921 37.8507C25.86 38.1828 25.5966 38.577 25.4169 39.0109C25.3349 39.2087 25.2711 39.4129 25.226 39.6211H25.2327L25.2327 46.9004H18.5601L18.5601 40.3794C18.5601 40.3766 18.5601 40.3738 18.5601 40.371L18.5601 39.6211H18.5884C18.6688 38.5464 18.9198 37.4897 19.3335 36.4911C19.8441 35.2583 20.5925 34.1382 21.536 33.1947C22.4795 32.2512 23.5996 31.5028 24.8324 30.9922C26.0651 30.4816 27.3864 30.2187 28.7207 30.2188C30.055 30.2188 31.3763 30.4816 32.609 30.9922C33.8418 31.5028 34.9619 32.2512 35.9054 33.1947C36.8489 34.1382 37.5973 35.2583 38.1079 36.4911Z" fill="white"/>
</svg>
